<svg xmlns="http://www.w3.org/2000/svg" width="40" height="40" fill="#ff6f61" viewBox="0 0 32 32"><path d="M11.669 20.483c-.448 0-.812.376-.812.84s.364.841.812.841c.448 0 .812-.376.812-.841s-.363-.84-.812-.84zm1.624-5.884c-.598 0-1.082.501-1.082 1.12s.484 1.121 1.082 1.121c.598 0 1.082-.502 1.082-1.12 0-.62-.484-1.121-1.082-1.121zm11.369 2.522c.449 0 .812-.376.812-.84s-.363-.841-.812-.841c-.448 0-.812.376-.812.841s.363.84.812.84zm-2.165-2.522c.598 0 1.082-.502 1.082-1.121s-.484-1.121-1.082-1.121c-.598 0-1.083.502-1.083 1.12 0 .62.485 1.122 1.082 1.122h.001zm-13.806.281c-.748 0-1.354.627-1.354 1.401s.606 1.401 1.354 1.401c.748 0 1.354-.627 1.354-1.401s-.606-1.401-1.354-1.401z"/><path d="M18.274 18.048l2.564-7.551c.129-.38.057-.801-.19-1.111s-.631-.465-1.017-.408l-3.25.488 3.88-6.111 8.611 15.768-10.597-1.075zm-5.836 10.258l-9.42-14.512 15.116-2.268-5.696 16.78zm19.418-8.388L21.298.583A1.106 1.106 0 0 0 20.369 0a1.1 1.1 0 0 0-.965.518l-5.961 9.388L.952 11.78c-.378.057-.702.31-.856.671s-.12.78.094 1.108l11.64 17.932a1.102 1.102 0 0 0 1.062.498c.417-.055.768-.349.907-.759l3.717-10.95 13.264 1.346a1.104 1.104 0 0 0 1.039-.517c.226-.36.241-.819.036-1.193v.001z"/></svg>