<svg xmlns="http://www.w3.org/2000/svg" viewBox="0 0 32 32" class="svg-icon" fill="ffffff">
				<path d="M14.955 2.754v25.21l-8.311-8.311c-0.407-0.407-1.067-0.407-1.475 0s-0.407 1.067 0 1.475l10.091 10.091c0.024 0.024 0.050 0.047 0.076 0.069 0.012 0.010 0.025 0.019 0.037 0.027 0.015 0.011 0.030 0.023 0.045 0.032s0.030 0.019 0.045 0.027c0.014 0.009 0.027 0.017 0.043 0.025 0.015 0.009 0.031 0.015 0.047 0.023 0.015 0.008 0.030 0.015 0.045 0.021s0.031 0.011 0.046 0.017c0.016 0.006 0.033 0.012 0.050 0.017 0.015 0.005 0.031 0.009 0.047 0.012 0.018 0.004 0.034 0.009 0.051 0.012 0.019 0.004 0.036 0.006 0.055 0.009 0.015 0.003 0.030 0.005 0.046 0.006 0.069 0.006 0.138 0.006 0.206 0 0.015-0.001 0.030-0.005 0.046-0.006 0.019-0.003 0.038-0.005 0.055-0.009s0.034-0.009 0.051-0.012c0.016-0.004 0.032-0.008 0.047-0.012 0.016-0.005 0.032-0.011 0.049-0.017s0.031-0.011 0.047-0.017c0.015-0.006 0.030-0.014 0.045-0.021 0.016-0.008 0.032-0.015 0.047-0.023 0.014-0.008 0.027-0.016 0.041-0.024 0.015-0.009 0.031-0.017 0.046-0.029 0.015-0.010 0.029-0.021 0.044-0.031 0.012-0.010 0.026-0.019 0.039-0.029 0.025-0.020 0.049-0.043 0.073-0.065 0.001-0.001 0.003-0.003 0.004-0.004l10.091-10.091c0.204-0.204 0.305-0.47 0.305-0.738s-0.101-0.534-0.305-0.738c-0.407-0.407-1.067-0.407-1.475 0l-8.311 8.311v-25.21c0-0.576-0.468-1.042-1.043-1.042-0.576 0-1.044 0.467-1.044 1.042z"/>
			</svg>