<svg xmlns="http://www.w3.org/2000/svg" width="40" height="40" fill="#ff6f61" viewBox="0 0 32 32"><path d="M9.232 14.667c.46 0 .833-.373.833-.833v-.541a.833.833 0 0 0-1.666 0v.541c0 .46.373.833.833.833zm-1.624.229h-.541a.833.833 0 0 0 0 1.666h.541a.833.833 0 0 0 0-1.666zm3.249 1.666h.541a.833.833 0 0 0 0-1.666h-.541a.833.833 0 0 0-.001 1.666z"/><path d="M27.964 22.013c-.706 1.287-.912 1.539-1.677 1.539H5.712c-.764 0-.969-.251-1.671-1.531-.189-.344-.396-.722-.647-1.121h25.211c-.248.396-.454.771-.641 1.112zM5.199 15.729c0-2.224 1.809-4.033 4.033-4.033a4.037 4.037 0 0 1 4 4.537l-3.213 2.202a.836.836 0 0 0 .046-.27v-.541a.832.832 0 1 0-1.666-.001v.541a.83.83 0 0 0 .178.514H6.484a4.038 4.038 0 0 1-1.285-2.95zm12.037-7.045l.106.249c.444 1.044.832 1.955 1.03 3.776l-2.965 2.033a6.249 6.249 0 0 0-1.807-3.483c1.055-1.466 2.654-2.225 3.637-2.575zm5.56 3.685c.688.998 1.725 2.839 1.674 4.785l-4.455.468-.323-.899a.833.833 0 1 0-1.568.564l.184.514-4.057.426 6.301-4.32.86 1.73a.834.834 0 0 0 1.492-.742l-.964-1.94.856-.587zm9.12 6.995a1.113 1.113 0 0 0-1.026-.686h-4.432c.049-.094.087-.196.108-.305.196-1.018.15-2.011-.032-2.936l2.314.309a1.111 1.111 0 0 0 .294-2.202l-2.358-.314 1.903-1.849a1.112 1.112 0 0 0-1.547-1.594l-2.066 2.007c-.599-.991-1.148-1.617-1.205-1.679a1.11 1.11 0 0 0-1.456-.177l-1.996 1.368c-.26-1.441-.649-2.355-1.029-3.246-.156-.367-.304-.715-.448-1.107a1.11 1.11 0 0 0-1.252-.708c-.167.031-3.804.763-5.924 3.765a6.215 6.215 0 0 0-2.53-.537 6.26 6.26 0 0 0-6.253 6.254c0 1.042.261 2.052.741 2.95H1.113a1.111 1.111 0 0 0-.785 1.896c.862.862 1.344 1.74 1.769 2.515.69 1.257 1.473 2.683 3.618 2.683h20.574c2.147 0 2.932-1.43 3.625-2.691.426-.774.907-1.651 1.764-2.507.317-.317.412-.795.241-1.21z"/></svg>