<svg xmlns="http://www.w3.org/2000/svg" viewBox="0 0 35 35" class="svg-icon" width="50" height="50" fill="ffffff">
					<path d="M15.95 0.767c-8.8 0-15.85 7.050-15.85 15.85s7.15 15.95 15.95 15.95 15.85-7.15 15.85-15.95-7.15-15.85-15.95-15.85zM21.6 14.217c1.4 0 2.6 1.2 2.6 2.6s-1.2 2.6-2.6 2.6c-1.4 0-2.6-1.2-2.6-2.6s1.050-2.6 2.6-2.6zM11.8 19.417c-3.6 0-6.4-2.95-6.4-6.4 0-3.6 2.95-6.4 6.4-6.4s6.5 2.8 6.5 6.4-2.9 6.4-6.5 6.4zM21.6 26.717c-1.75 0-3.15-1.4-3.15-3.15s1.4-3.15 3.15-3.15c1.75 0 3.15 1.4 3.15 3.15 0 1.7-1.45 3.15-3.15 3.15zM25.25 14.967c-0.75 0-1.3-0.55-1.3-1.3s0.55-1.3 1.3-1.3 1.3 0.55 1.3 1.3c0.050 0.65-0.6 1.3-1.3 1.3z"/>
				</svg>