<svg name="icon_search" class="MRTN__sc-ilqw08-5 jBFDyQ" fill="#ff6f61" xmlns="http://www.w3.org/2000/svg" width="16" height="16" viewBox="0 0 32 32"><path d="M13.404 25.205c-6.96 0-12.603-5.642-12.603-12.603S6.443-.001 13.404-.001c6.96 0 12.603 5.642 12.603 12.603-.022 6.952-5.651 12.581-12.601 12.603h-.002zm0-23.057c-5.75 0-10.411 4.661-10.411 10.411S7.654 22.97 13.404 22.97s10.411-4.661 10.411-10.411c-.019-5.742-4.669-10.392-10.409-10.411h-.002zM30.105 32h-.006a1.09 1.09 0 0 1-.772-.318l-5.145-5.151a1.096 1.096 0 1 1 1.545-1.551l.001.001 5.151 5.151a1.095 1.095 0 0 1 0 1.55 1.095 1.095 0 0 1-.772.318h-.001z"/></svg>