<svg xmlns="http://www.w3.org/2000/svg" viewBox="0 0 35 35" class="svg-icon" width="50" height="50" fill="ffffff">
					<path d="M1.333 16.666c0 6.212 3.865 11.52 9.321 13.657-0.129-1.16-0.243-2.94 0.052-4.209 0.264-1.144 1.719-7.288 1.719-7.288s-0.439-0.879-0.439-2.177c0-2.040 1.181-3.563 2.655-3.563 1.249 0 1.855 0.94 1.855 2.067 0 1.259-0.801 3.139-1.216 4.883-0.344 1.461 0.733 2.651 2.172 2.651 2.608 0 4.612-2.749 4.612-6.717 0-3.511-2.523-5.965-6.127-5.965-4.172 0-6.621 3.131-6.621 6.364 0 1.26 0.484 2.613 1.091 3.348 0.119 0.145 0.136 0.272 0.101 0.421-0.111 0.463-0.359 1.459-0.407 1.661-0.064 0.269-0.213 0.327-0.492 0.199-1.831-0.853-2.975-3.533-2.975-5.683 0-4.627 3.361-8.876 9.689-8.876 5.088 0 9.041 3.625 9.041 8.471 0 5.055-3.187 9.123-7.609 9.123-1.487 0-2.884-0.773-3.363-1.685 0 0-0.735 2.8-0.913 3.487-0.332 1.273-1.225 2.869-1.823 3.844 1.372 0.427 2.829 0.655 4.343 0.655 8.1 0 14.667-6.565 14.667-14.665 0-8.101-6.567-14.665-14.667-14.665s-14.667 6.564-14.667 14.665z"/>
				</svg>