<svg xmlns="http://www.w3.org/2000/svg" width="40" height="40" fill="#ff6f61" viewBox="0 0 32 32"><path d="M27.729 26.123c-.701 1.276-.904 1.526-1.664 1.526h-20.4c-.758 0-.96-.249-1.657-1.518-.187-.341-.392-.716-.641-1.111h24.999c-.246.392-.45.764-.636 1.103zM3.266 18.001c-.299-2.226.218-4.175 1.495-5.635 1.644-1.88 4.538-2.915 8.152-2.915 1.141 0 2.418.176 3.575.398a4.795 4.795 0 0 0-1.401.944c-2.162 2.164-2.162 6.104 0 8.267.958.96 2.364 1.488 3.96 1.488 1.768 0 3.479-.657 4.577-1.757 1.342-1.343 1.401-3.426 1.299-4.633a1.77 1.77 0 0 1 .142-.241c2.098 1.224 3.121 2.74 3.121 4.632 0 1.526-.699 2.694-1.988 4.268H5.002C3.851 21.346 3.477 19.563 3.267 18zm19.8-8.438c.174-.169.343-.337.501-.499.42.287 1.057.782 1.59 1.433-2.561 2.489-2.472 3.417-2.439 3.747.134 1.352-.104 2.442-.653 2.992-.684.685-1.841 1.11-3.019 1.11-.992 0-1.868-.307-2.402-.842-1.3-1.3-1.3-3.853 0-5.154.561-.561 1.766-.95 2.849-.95.153 0 .304.007.45.023.65.072 1.427-.217 3.122-1.86zm1.919-3.881c.027-.335.163-.664.36-.861.323-.323.543-.466.698-.47.179.004.545.166.748.37.246.247.295.648.126 1.024a1.1 1.1 0 0 0 1.457 1.456c.449-.203 1.018-.14 1.207.049a.664.664 0 0 1 .215.535c-.004.164-.221.613-.552.944-.234.235-.549.392-.822.41l-.026.003c-.005 0-.538.047-1.304.047h-.09l-.07.003c-.66-.829-1.433-1.458-1.993-1.855.011-.063.018-.127.018-.192.003-.842.023-1.37.027-1.463zm5.644 17.136h-1.67c.815-1.207 1.429-2.571 1.429-4.268 0-2.547-1.328-4.72-3.847-6.313.281-.281.581-.569.887-.849.635-.011 1.073-.047 1.156-.053.801-.058 1.609-.441 2.218-1.05.561-.563 1.171-1.499 1.196-2.443a2.872 2.872 0 0 0-.859-2.149c-.438-.438-1.144-.761-1.946-.815a2.974 2.974 0 0 0-.845-1.713c-.491-.493-1.381-.998-2.261-1.016h-.053c-1.004 0-1.728.595-2.249 1.116-.576.576-.94 1.408-1 2.281l-.002.027c-.001.02-.018.428-.026 1.143-.68.749-1.404 1.46-1.962 1.94l-.035-.013c-.18-.057-4.429-1.394-7.85-1.394-4.319 0-7.711 1.268-9.809 3.667-1.708 1.953-2.406 4.504-2.02 7.378.182 1.347.497 2.979 1.308 4.524h-1.29a1.102 1.102 0 0 0-.779 1.88c.855.855 1.332 1.725 1.754 2.494.685 1.247 1.461 2.661 3.588 2.661h20.401c2.128 0 2.907-1.418 3.594-2.668.421-.768.899-1.637 1.748-2.486a1.102 1.102 0 0 0-.778-1.881z"/></svg>