<svg xmlns="http://www.w3.org/2000/svg" width="40" height="40" fill="#ff6f61" viewBox="0 0 32 32"><path d="M14.746 10.364c.145-.027.291-.052.439-.075a20.07 20.07 0 0 1 3.377-.223l.035.001.034-.009c.254-.068.4-.27.491-.457.088-.183.148-.404.201-.597l.005-.017a3.02 3.02 0 0 1 .172-.519c.058-.117.107-.156.146-.169a.37.37 0 0 1 .047.042c.064.067.133.173.218.309l.028.045c.072.117.155.25.242.361.093.119.225.26.401.315a.568.568 0 0 1 .229.124.153.153 0 0 1 .047.102c.007.089-.035.226-.148.428a2.559 2.559 0 0 1-.241-.02 10.708 10.708 0 0 1-.275-.039 17.167 17.167 0 0 0-.273-.04 3.22 3.22 0 0 0-.574-.036c-.167.009-.382.048-.522.208l-.008.009-4.07.256zm0 0c1.323-.075 2.595.089 3.644.307a16.851 16.851 0 0 0 .384-.505l.026-.036.007-.009.001-.002-4.064.246zm-8.893 9.808c.277.869 1.165 1.533 2.287 1.972 1.136.445 2.572.685 4.046.664 2.905-.04 6.074-1.099 7.339-3.752 1.899-1.272 3.605-3.332 4.292-4.161l.033-.04c.072.009.157.022.253.036l.074.011c.19.028.41.058.625.079.213.021.431.032.617.018a1.21 1.21 0 0 0 .272-.048.537.537 0 0 0 .25-.155l.002-.003c.427-.512.703-1.143.674-1.74s-.362-1.122-1.052-1.422c-.207-.359-.512-.784-.887-1.065a1.49 1.49 0 0 0-.698-.304 1.187 1.187 0 0 0-.803.192c-.251.152-.458.403-.629.726a5.084 5.084 0 0 0-.39 1.027c-.093-.003-.192-.001-.293.001l-.169.005-.19.006a.875.875 0 0 0-.12-.472 1.074 1.074 0 0 0-.389-.369c.034-.002.068-.005.101-.009.169-.02.374-.071.507-.223l.005-.006c.387-.473.641-1.063.612-1.624s-.341-1.054-.987-1.335a3.27 3.27 0 0 0-.578-.766c-.293-.282-.703-.54-1.19-.489l-.015.002c-.459.076-.782.393-1.003.757a3.709 3.709 0 0 0-.397 1.007c-.879.015-2.608.133-4.22.548-.871.224-1.723.539-2.391.981-.639.423-1.131.979-1.283 1.702-1.565 1.118-2.642 2.857-3.21 5.116a5.087 5.087 0 0 0-.837 1.112c-.298.553-.508 1.269-.258 2.021zM19.635 8.293l.003.001a.004.004 0 0 1-.003-.001zm-4.157 11.63c.461.205.97.27 1.516.2-.508.377-1.14.671-1.846.884-1.054.319-2.255.452-3.408.427s-2.248-.207-3.09-.511c-.421-.152-.771-.331-1.034-.53s-.424-.407-.494-.616c-.141-.441.045-.834.337-1.213.102-.133.208-.251.31-.367l.135-.153c.068-.079.135-.16.188-.24.05-.074.1-.165.12-.265.541-2.137 1.515-3.511 2.669-4.376 1.158-.869 2.517-1.241 3.847-1.337s2.62.087 3.625.317c.344.079.652.163.916.242-1.333.19-2.858.545-4.014 1.209-.74.425-1.353.99-1.651 1.741-.301.758-.267 1.663.204 2.731.398.9.956 1.538 1.67 1.856zm7.628-6.265l.04.155-.116-.09c-.559.719-2.178 2.673-3.875 3.932-.854.633-1.691 1.062-2.402 1.104a1.491 1.491 0 0 1-.937-.233c-.278-.184-.538-.493-.755-.978-.411-.945-.287-1.629.115-2.149.42-.543 1.174-.946 2.101-1.235 1.847-.575 4.223-.646 5.417-.606l.085.003.068-.05a.841.841 0 0 0 .219-.255 2.14 2.14 0 0 0 .148-.312c.058-.145.114-.313.167-.473.026-.077.05-.152.075-.222.081-.232.157-.418.238-.535a.307.307 0 0 1 .084-.089c.007-.004.01-.005.022-.002a.417.417 0 0 1 .127.083c.062.053.129.125.199.211.138.17.27.377.365.548.092.178.271.273.385.331l.087.043c.096.047.167.082.225.131a.193.193 0 0 1 .081.174c-.002.097-.047.26-.2.521-.076.016-.174.02-.298.014a5.703 5.703 0 0 1-.516-.06l-.024-.003a5.19 5.19 0 0 0-.576-.061c-.18-.005-.382.011-.551.104z"/><path d="M8.133 19.652c-.482-.281-.08-1.044.402-.763.803.401 3.171 1.365 4.335.723.482-.281.923.482.402.763-1.405.763-3.813-.04-5.137-.723z"/><path d="M24.79 2.635c7.385 4.856 9.432 14.81 4.575 22.155-4.856 7.385-14.769 9.432-22.155 4.575S-2.222 14.596 2.635 7.21s14.81-9.432 22.155-4.575zM4.722 7.17l23.841 15.813c3.612-6.502 1.686-14.81-4.656-18.984C17.606-.135 9.258 1.31 4.722 7.17zm22.596 17.7L3.477 9.016C-.175 15.518 1.791 23.826 8.133 28c6.261 4.134 14.609 2.689 19.184-3.13z"/></svg>