<svg class="SHRD__sc-sr6s0j-1 cuxuXS" xmlns="http://www.w3.org/2000/svg" width="14" height="14" fill="#ffffff" viewBox="0 0 32 32"><path d="M25.155 31.333h-.006c-.456 0-.884-.121-1.253-.333l.012.006-7.827-4.42-7.844 4.42a2.533 2.533 0 0 1-3.664-2.929l-.005.018 2.3-7.629a.2.2 0 0 0-.052-.203l-5.404-5.41a2.482 2.482 0 0 1-.754-1.786c0-.327.063-.64.178-.927l-.006.017a2.511 2.511 0 0 1 2.225-1.625h.006l7.157-.373a.199.199 0 0 0 .168-.121V10.002l3.943-8.205A1.972 1.972 0 0 1 16.11.667h.014-.001a1.968 1.968 0 0 1 1.789 1.152l.005.012 3.832 8.153c.028.081.099.14.185.151h.001l7.157.373a2.535 2.535 0 0 1 1.66 4.321l-5.41 5.404a.2.2 0 0 0-.046.205v-.001l2.283 7.611a2.533 2.533 0 0 1-2.422 3.261z"/></svg>