<svg xmlns="http://www.w3.org/2000/svg" width="40" height="40" fill="#ff6f61" viewBox="0 0 32 32"><path d="M14.675 15.867c0-.607-.498-1.098-1.111-1.098H2.736c-.613 0-1.111.491-1.111 1.097s.498 1.097 1.111 1.097h10.827c.613 0 1.111-.491 1.111-1.097l.001.001zm-10.586 3.45c-.614 0-1.111.491-1.111 1.097s.497 1.098 1.111 1.098h7.309c.613 0 1.11-.492 1.11-1.098s-.497-1.097-1.11-1.097H4.089zm16.243-8.562c-.613 0-1.11.491-1.11 1.097v6.421c0 .606.497 1.097 1.11 1.097h4.873c.613 0 1.11-.491 1.11-1.097s-.497-1.097-1.11-1.097h-3.762v-5.325c0-.606-.498-1.097-1.111-1.097z"/><path d="M21.442 6.528V4.657h1.867c.613 0 1.111-.491 1.111-1.098s-.498-1.097-1.111-1.097h-5.956c-.613 0-1.11.491-1.11 1.097s.497 1.098 1.11 1.098h1.867v1.871a11.694 11.694 0 0 0-7.515 3.693H1.109c-.613 0-1.11.491-1.11 1.097s.497 1.097 1.11 1.097h11.099c.329 0 .641-.144.852-.393a9.489 9.489 0 0 1 7.269-3.352c5.209 0 9.447 4.188 9.447 9.336s-4.238 9.336-9.447 9.336a9.493 9.493 0 0 1-7.023-3.113 1.119 1.119 0 0 0-.827-.365H1.108c-.613-.001-1.11.491-1.11 1.097s.497 1.097 1.11 1.097h10.889a11.734 11.734 0 0 0 8.332 3.478c6.434 0 11.669-5.173 11.669-11.532 0-5.989-4.643-10.924-10.557-11.478z"/></svg>