<svg xmlns="http://www.w3.org/2000/svg" width="40" height="40" fill="#ff6f61" viewBox="0 0 32 32"><path d="M7.639 26.019l-5.015-9.375c-.317-.935-.878-3.517.245-4.51.802-.709 1.653-.602 1.756-.586.284.069.564.018.812-.14.25-.16.41-.418.476-.715.001-.007.154-.629.565-1.134.462-.567 1.055-.736 1.864-.531.515.13 1.049-.146 1.267-.647.148-.342.709-1.292 1.504-1.586.465-.173.978-.11 1.567.193.268.137.562.189.843.085.276-.102.488-.283.612-.557.071-.108.445-.594 1.378-.528.517.036 1.136.346 1.466 1.479C8.007 8.729 4.317 15.146 4.158 15.43l-.004.009c-.021.038-.04.078-.058.119l-.01.028a.932.932 0 0 0-.033.102l-.01.039a1.607 1.607 0 0 0-.02.1l-.005.035a1.137 1.137 0 0 0-.009.131v.003l.001.019c.001.04.003.079.007.117l.005.038c.005.034.011.068.019.101l.008.035c.011.043.025.086.04.127l.001.001c.017.044.037.085.059.125l.005.011 3.969 7.254c.196.358.562.579.958.579h20.718v1.616H7.641zm22.157-8.6v4.695H9.72L7.015 17.17l22.781.249zM17.88 9.662c.013.01.026.024.04.034 2.581 1.832 5.981 3.886 8.58 5.397l-19.148-.208c1.667-1.849 5.029-4.624 10.527-5.223h.001zm13.532 5.609c-.076-.042-7.476-4.104-12.094-7.355-.352-2.512-1.698-4.076-3.658-4.213-1.286-.09-2.217.372-2.808.9-.86-.268-1.712-.256-2.501.042-1.143.432-1.904 1.347-2.334 2.021-.832-.058-1.607.132-2.273.557-.869.556-1.38 1.392-1.665 2.033a4.545 4.545 0 0 0-2.639 1.133c-2.578 2.278-.925 6.938-.855 7.134.019.053.042.104.068.153l5.372 10.042c.195.364.564.59.964.59h23.908c.608 0 1.102-.512 1.102-1.144V16.283a1.15 1.15 0 0 0-.588-1.012l.001.001z"/></svg>