<svg xmlns="http://www.w3.org/2000/svg" viewBox="0 0 35 35" class="svg-icon" width="50" height="50" fill="ffffff">
					<path d="M1.333 16.667c0-8.1 6.567-14.667 14.667-14.667s14.667 6.567 14.667 14.667c0 8.1-6.567 14.667-14.667 14.667s-14.667-6.567-14.667-14.667zM23.665 13.715c0 0-0.152-1.101-0.621-1.587-0.595-0.637-1.261-0.64-1.568-0.677-2.189-0.161-5.472-0.161-5.472-0.161h-0.008c0 0-3.283 0-5.472 0.161-0.307 0.037-0.973 0.040-1.568 0.677-0.469 0.485-0.621 1.587-0.621 1.587s-0.157 1.293-0.157 2.587v1.213c0 1.295 0.157 2.588 0.157 2.588s0.152 1.101 0.621 1.587c0.595 0.637 1.377 0.617 1.725 0.683 1.251 0.124 5.319 0.161 5.319 0.161s3.287-0.005 5.476-0.167c0.307-0.037 0.973-0.040 1.568-0.677 0.469-0.485 0.621-1.587 0.621-1.587s0.157-1.293 0.157-2.588v-1.213c0-1.293-0.157-2.587-0.157-2.587zM14.385 18.985v-4.492l4.227 2.253z"/>
				</svg>